<!--?xml version="1.0" standalone="no"?-->
              <svg id="sw-js-blob-svg" viewBox="0 0 100 100" xmlns="http://www.w3.org/2000/svg" version="1.1">
                    <defs> 
                        <linearGradient id="sw-gradient" x1="0" x2="1" y1="1" y2="0">
                            <stop id="stop1" stop-color="rgba(178, 188, 251, 1)" offset="0%"></stop>
                            <stop id="stop2" stop-color="rgba(247, 141, 167, 1)" offset="100%"></stop>
                        </linearGradient>
                    </defs>
                <path fill="rgba(178, 188, 251, 1)" d="M23.4,-24.7C31.5,-21.1,40,-14.8,42,-6.9C44,1,39.5,10.6,33.9,18.8C28.2,26.9,21.5,33.7,13.4,36.4C5.4,39,-3.9,37.7,-9.6,32.8C-15.3,28,-17.4,19.6,-20.9,12.6C-24.4,5.5,-29.3,-0.3,-30.6,-7.6C-32,-15,-29.8,-24,-24.1,-28C-18.4,-32.1,-9.2,-31.3,-0.8,-30.4C7.6,-29.4,15.3,-28.4,23.4,-24.7Z" width="100%" height="100%" transform="translate(50 50)" stroke-width="0" style="transition: all 0.3s ease 0s;" stroke="rgba(247, 141, 167, 1)"></path>
              </svg>