<?xml version="1.0" encoding="UTF-8" standalone="no"?>
<!-- Created with Inkscape (http://www.inkscape.org/) -->

<svg
   xmlns:dc="http://purl.org/dc/elements/1.1/"
   xmlns:cc="http://creativecommons.org/ns#"
   xmlns:rdf="http://www.w3.org/1999/02/22-rdf-syntax-ns#"
   xmlns:svg="http://www.w3.org/2000/svg"
   xmlns="http://www.w3.org/2000/svg"
   xmlns:sodipodi="http://sodipodi.sourceforge.net/DTD/sodipodi-0.dtd"
   xmlns:inkscape="http://www.inkscape.org/namespaces/inkscape"
   width="76.538963mm"
   height="72.47522mm"
   viewBox="0 0 76.538963 72.47522"
   version="1.1"
   id="svg8"
   inkscape:version="0.92.4 (5da689c313, 2019-01-14)"
   sodipodi:docname="arvre-somo-nos.svg">
  <defs
     id="defs2">
    <clipPath
       clipPathUnits="userSpaceOnUse"
       id="clipPath23">
      <rect
         style="opacity:1;fill:#47abb4;fill-opacity:1;fill-rule:nonzero;stroke:#000000;stroke-width:0.5;stroke-linecap:round;stroke-linejoin:round;stroke-miterlimit:4;stroke-dasharray:none;stroke-dashoffset:0;stroke-opacity:1;paint-order:markers fill stroke"
         id="rect25"
         width="84.153748"
         height="77.970596"
         x="20.883175"
         y="69.893005" />
    </clipPath>
    <clipPath
       clipPathUnits="userSpaceOnUse"
       id="clipPath60">
      <rect
         style="opacity:1;fill:#9cb70f;fill-opacity:1;fill-rule:nonzero;stroke:#000000;stroke-width:0.5;stroke-linecap:round;stroke-linejoin:round;stroke-miterlimit:4;stroke-dasharray:none;stroke-dashoffset:0;stroke-opacity:1;paint-order:markers fill stroke"
         id="rect62"
         width="86.562943"
         height="76.496323"
         x="3.7417734"
         y="171.11604" />
    </clipPath>
  </defs>
  <sodipodi:namedview
     id="base"
     pagecolor="#ffffff"
     bordercolor="#666666"
     borderopacity="1.0"
     inkscape:pageopacity="0.0"
     inkscape:pageshadow="2"
     inkscape:zoom="1.4"
     inkscape:cx="246.69342"
     inkscape:cy="99.710793"
     inkscape:document-units="mm"
     inkscape:current-layer="svg8"
     showgrid="false"
     fit-margin-top="0"
     fit-margin-left="0"
     fit-margin-right="0"
     fit-margin-bottom="0"
     inkscape:window-width="1366"
     inkscape:window-height="745"
     inkscape:window-x="-8"
     inkscape:window-y="-8"
     inkscape:window-maximized="1" />
  <metadata
     id="metadata5">
    <rdf:RDF>
      <cc:Work
         rdf:about="">
        <dc:format>image/svg+xml</dc:format>
        <dc:type
           rdf:resource="http://purl.org/dc/dcmitype/StillImage" />
        <dc:title></dc:title>
      </cc:Work>
    </rdf:RDF>
  </metadata>
  <path
     style="display:inline;fill:#9cb70f;stroke:none;stroke-width:1;stroke-linecap:round;stroke-linejoin:round;stroke-miterlimit:4;stroke-dasharray:none;stroke-dashoffset:0;stroke-opacity:1;paint-order:stroke fill markers"
     d="m 54.453923,244.29035 c -1.16404,-0.21979 -4.378725,-1.15923 -7.143751,-2.08764 -16.374209,-5.49798 -21.74552,-6.00148 -30.824188,-2.88946 -3.455386,1.18445 -5.271845,1.38031 -7.1171431,0.7674 -1.775258,-0.58964 -2.245869,-1.29217 -2.090613,-3.12085 0.23754,-2.79786 2.082987,-5.12633 5.4760221,-6.90932 4.112649,-2.16114 7.893202,-3.07554 12.715637,-3.07554 5.172622,0 9.941578,1.1246 14.564013,3.43446 7.845309,3.92033 15.549763,6.56487 21.652293,7.43211 3.22156,0.45782 10.18364,0.17578 12.81277,-0.51905 2.34807,-0.62056 5.7052,-1.91905 7.07075,-2.73489 l 0.92981,-0.5555 -0.92604,0.98858 c -2.16988,2.31642 -7.51089,5.81126 -11.24479,7.35792 -4.90247,2.03071 -11.21726,2.79119 -15.87477,1.91178 z m 8.59873,-7.6865 c -5.07256,-0.57611 -8.63673,-1.40088 -12.497969,-2.89209 -2.623418,-1.01316 -6.237171,-2.73725 -6.446161,-3.0754 -0.210214,-0.34013 1.49465,-1.2497 2.673848,-1.42653 0.756412,-0.11343 1.58264,0.009 2.774675,0.41032 l 1.697508,0.57185 0.474901,-0.65194 c 0.915876,-1.25729 1.778348,-1.59795 4.444028,-1.7553 l 2.51354,-0.14836 0.30879,-5.95313 c 0.4273,-8.23787 0.43151,-7.92971 -0.11035,-8.09741 -0.25466,-0.0788 -0.66872,-0.25302 -0.92012,-0.38711 -0.73901,-0.39418 -2.23933,0.49341 -2.98511,1.76599 -0.77165,1.31673 -1.9743,2.12855 -3.519251,2.3756 -2.238123,0.35789 -4.834271,-1.36976 -5.230262,-3.48057 -0.150011,-0.79963 -0.357328,-1.03254 -1.26982,-1.42658 -0.599797,-0.259 -1.309659,-0.71597 -1.577467,-1.01547 -0.375957,-0.42046 -0.807773,-0.54456 -1.894822,-0.54456 -0.774343,0 -1.761434,-0.18282 -2.193538,-0.40627 -0.885582,-0.45795 -2.05009,-1.74232 -2.303429,-2.54051 -0.122309,-0.38537 -0.400018,-0.5306 -1.014597,-0.5306 -1.897992,0 -3.616063,-1.73058 -3.616063,-3.64239 0,-1.63657 0.690903,-2.7228 2.318578,-3.64524 0.03829,-0.0217 -0.112557,-0.47546 -0.335211,-1.00835 -0.458764,-1.09798 -0.323149,-1.98163 0.427839,-2.78772 0.463206,-0.49719 0.476229,-0.61268 0.129746,-1.15062 -1.41819,-2.20187 -0.304437,-5.6007 2.19691,-6.70429 0.987433,-0.43565 1.00717,-0.47178 0.879004,-1.60888 -0.12283,-1.08975 -0.06204,-1.22892 0.962469,-2.20351 0.642162,-0.61088 1.093581,-1.28324 1.093581,-1.62882 0,-1.16278 1.067779,-2.85549 2.231472,-3.53746 1.292032,-0.75718 3.525214,-0.895 4.686263,-0.28921 0.652934,0.34068 0.735923,0.31669 1.233649,-0.35652 0.462794,-0.62596 0.499121,-0.88354 0.273677,-1.94058 -0.217881,-1.02158 -0.174238,-1.41257 0.269706,-2.41618 1.202669,-2.71883 4.703936,-3.10531 6.695036,-0.73902 0.54527,0.64802 0.73834,0.72198 1.35122,0.51769 0.50797,-0.16932 0.94412,-0.12408 1.50596,0.1562 0.73205,0.36519 0.84323,0.35339 1.49419,-0.15866 0.43617,-0.34309 1.2173,-0.59442 2.05658,-0.66172 1.60474,-0.12868 2.95526,0.60902 3.60225,1.96767 0.32852,0.68989 0.57647,0.85098 1.43968,0.93536 0.67337,0.0658 1.37636,-0.0724 1.98437,-0.39017 1.15136,-0.60174 2.93241,-0.48458 3.94836,0.25974 0.92913,0.68071 1.62251,2.09804 1.62301,3.31758 2.7e-4,0.81807 0.094,0.99219 0.53346,0.99219 0.29318,0 0.96319,0.39419 1.48891,0.87598 0.82786,0.75867 0.96563,1.05726 1.02879,2.22976 0.0622,1.15532 0.20262,1.46966 0.95763,2.14426 0.78806,0.70413 0.88928,0.95169 0.92657,2.26623 0.033,1.16475 0.18657,1.64773 0.72853,2.29182 1.40155,1.66564 1.28309,3.82596 -0.28926,5.27535 l -1.00859,0.92971 0.59973,1.18771 c 0.39651,0.78526 0.84478,1.26637 1.32292,1.41983 1.73987,0.55843 2.71879,2.36377 2.17507,4.01128 -0.26003,0.78788 -0.23788,1.04455 0.13987,1.62107 1.15284,1.75947 0.97483,3.8304 -0.44312,5.15496 -1.43202,1.33772 -3.54257,1.308 -5.11431,-0.072 l -0.88366,-0.77586 -0.9857,0.66891 c -0.68156,0.46252 -1.34166,0.66891 -2.13939,0.66891 -1.06966,0 -1.15371,0.0507 -1.15371,0.69638 0,1.09398 -1.02136,2.48717 -2.2237,3.03321 -1.39111,0.63177 -1.85675,0.62495 -3.24604,-0.0476 -0.88091,-0.42644 -1.2687,-0.83425 -1.71186,-1.80027 -0.51581,-1.12433 -0.64807,-1.2379 -1.32589,-1.13841 -0.41411,0.0608 -0.75292,0.20192 -0.75292,0.31366 0,0.11174 -0.37447,0.56927 -0.83216,1.01673 l -0.83216,0.81359 0.32781,8.41208 c 0.33812,8.6767 0.42843,9.63861 0.8118,8.64706 0.30878,-0.79864 1.48456,-1.64774 2.56145,-1.84976 1.46635,-0.27509 2.78071,0.27746 4.15507,1.74676 0.95157,1.0173 1.42075,1.32323 2.02937,1.32323 1.68547,0 3.59527,1.34482 3.74434,2.63665 0.0625,0.54166 -0.0985,0.68462 -1.11761,0.99255 -3.1439,0.94991 -8.25002,1.53226 -10.84791,1.23721 z"
     id="path35"
     inkscape:connector-curvature="0"
     clip-path="url(#clipPath60)"
     sodipodi:nodetypes="ccscssscscccsscccsscccccscccssccsccsscccccscssccssccccscccccsccscccccccccsccssscccsccscccscccc"
     inkscape:label="arvresomonos"
     transform="translate(-7.2505224,-172.1763)" />
</svg>
