<?xml version="1.0" encoding="UTF-8" standalone="no"?>
<!-- Created with Inkscape (http://www.inkscape.org/) -->

<svg
   xmlns:dc="http://purl.org/dc/elements/1.1/"
   xmlns:cc="http://creativecommons.org/ns#"
   xmlns:rdf="http://www.w3.org/1999/02/22-rdf-syntax-ns#"
   xmlns:svg="http://www.w3.org/2000/svg"
   xmlns="http://www.w3.org/2000/svg"
   xmlns:sodipodi="http://sodipodi.sourceforge.net/DTD/sodipodi-0.dtd"
   xmlns:inkscape="http://www.inkscape.org/namespaces/inkscape"
   version="1.1"
   id="svg2"
   width="682.66669"
   height="682.66669"
   viewBox="0 0 682.66669 682.66669"
   sodipodi:docname="maca.svg"
   inkscape:version="0.92.4 (5da689c313, 2019-01-14)">
  <metadata
     id="metadata8">
    <rdf:RDF>
      <cc:Work
         rdf:about="">
        <dc:format>image/svg+xml</dc:format>
        <dc:type
           rdf:resource="http://purl.org/dc/dcmitype/StillImage" />
        <dc:title></dc:title>
      </cc:Work>
    </rdf:RDF>
  </metadata>
  <defs
     id="defs6" />
  <sodipodi:namedview
     pagecolor="#ffffff"
     bordercolor="#666666"
     borderopacity="1"
     objecttolerance="10"
     gridtolerance="10"
     guidetolerance="10"
     inkscape:pageopacity="0"
     inkscape:pageshadow="2"
     inkscape:window-width="1366"
     inkscape:window-height="745"
     id="namedview4"
     showgrid="false"
     inkscape:zoom="0.34570311"
     inkscape:cx="341.33334"
     inkscape:cy="341.33334"
     inkscape:window-x="-8"
     inkscape:window-y="-8"
     inkscape:window-maximized="1"
     inkscape:current-layer="svg2" />
  <g
     id="g12"
     transform="matrix(1.2562533,0,0,1.2562533,-85.682492,-87.464899)">
    <path
       style="fill:#f5db70;stroke-width:1.33333337"
       d="m 87.142668,600.01891 c -6.934987,-2.81722 -7.142665,-4.20049 -7.142665,-47.57454 v -40.29565 l 3.215139,-3.74102 c 3.159152,-3.67587 3.524834,-3.75263 20.999998,-4.40768 L 122,503.33335 v -28 -28 l -11.77824,-0.66667 c -9.64241,-0.54577 -12.120682,-1.136 -13.666665,-3.25484 -2.067356,-2.8334 -2.271488,-8.60164 -2.031746,-57.41183 l 0.144077,-29.33333 3.407307,-3 3.407307,-3 h 81.38831 81.38831 l -4.17157,-5 c -39.27092,-47.06974 -53.36164,-110.38469 -33.49244,-150.49433 12.48637,-25.20602 40.8478,-40.92096 73.95577,-40.97856 l 10.55042,-0.0184 -6.55042,-2.22802 c -23.10345,-7.8583 -37.6347,-22.54887 -44.59884,-45.08787 -6.45897,-20.904074 -2.09873,-26.559668 19.19236,-24.894096 26.10826,2.042411 50.10226,14.026566 67.27069,33.599326 l 6.48106,7.3887 4.96751,-6.7671 c 8.86983,-12.08313 27.84768,-27.920702 30.87627,-25.767146 1.72517,1.226792 8.59388,11.890716 8.59388,13.342386 0,0.63364 -3.7207,4.29856 -8.2682,8.14426 -4.54751,3.8457 -11.10139,10.52239 -14.56416,14.8371 -6.10292,7.60438 -17.84498,29.0242 -16.59558,30.2736 0.33954,0.33952 3.79972,-0.15895 7.6893,-1.10771 16.25977,-3.96615 41.7806,-0.43788 59.49086,8.22464 42.95017,21.00796 52.51597,79.84531 23.02655,141.63167 -5.3308,11.16911 -17.97099,30.94833 -25.49965,39.90155 l -4.20444,5 h 59.38831 59.38831 l 3.74102,3.21571 3.74102,3.2157 0.66666,35.11763 0.66667,35.11763 25.25609,0.16352 25.2561,0.1635 3.07724,3.57751 c 3.07093,3.57017 3.07724,3.66215 3.07724,44.8971 v 41.31958 l -3.27274,3.27272 c -3.01536,3.01538 -4.2687,3.27274 -15.93784,3.27274 h -12.6651 l -0.3955,35.29851 c -0.3888,34.70169 -0.44684,35.34982 -3.43241,38.33333 l -3.03693,3.03483 -236.96308,0.25648 c -132.0954,0.14298 -238.227596,-0.2572 -239.820422,-0.90426 z M 543.80362,550.7713 c 0.0166,-8.49087 -0.27287,-16.48795 -0.64324,-17.77128 -0.59285,-2.05424 -2.57644,-2.33334 -16.58355,-2.33334 -8.75057,0 -15.91015,0.4845 -15.91015,1.07667 0,0.59216 2.60258,2.91113 5.78351,5.15326 6.11911,4.31314 15.22536,15.46685 21.44624,26.26821 2.61107,4.53363 4.06515,5.97608 4.80976,4.77128 0.58699,-0.94977 1.08083,-8.67393 1.09743,-17.1648 z m 33.43601,-78.17128 c 0.0632,-10.83235 -0.42753,-16.58792 -1.50628,-17.66667 -1.91738,-1.91739 -33.06666,-2.27103 -33.06666,-0.37541 0,0.67352 2.07388,2.50632 4.60862,4.07288 6.52803,4.03454 15.37831,14.28109 22.08336,25.56737 7.09523,11.94304 7.74927,10.98051 7.88096,-11.59817 z m -59.90628,-75.74537 c 0,-11.95361 -0.51667,-18.1713 -1.6,-19.25464 -1.85069,-1.85069 -31.14935,-2.29026 -32.26563,-0.48408 -0.37932,0.61375 1.8421,2.90047 4.93648,5.08159 7.1464,5.03725 16.6992,16.2718 22.22343,26.13585 2.36149,4.21667 4.83635,7.33127 5.49968,6.92131 0.66332,-0.40996 1.20604,-8.68997 1.20604,-18.40003 z M 432.99701,229.92841 c -1.63232,-20.33532 -15.64253,-36.10948 -35.27864,-39.72038 -6.81817,-1.2538 -6.2171,0.97566 1.98448,7.36063 8.6261,6.71545 20.11678,20.40195 27.50803,32.76468 2.74021,4.58333 5.32092,8.33333 5.73488,8.33333 0.41397,0 0.43704,-3.93221 0.0512,-8.73826 z m -96.63085,-71.18454 c 0.37242,-1.4242 0.34241,-2.9242 -0.0667,-3.33333 -0.40913,-0.40912 -5.29387,-0.70179 -10.85499,-0.65036 l -10.1111,0.0935 7.05116,2.40209 c 3.87813,1.32115 7.42813,2.77908 7.88888,3.23983 1.77473,1.77473 5.44665,0.71901 6.09277,-1.75174 z"
       id="path26"
       inkscape:connector-curvature="0" />
    <path
       style="fill:#abe6a2;stroke-width:1.33333337"
       d="m 87.142668,600.01891 c -6.934987,-2.81722 -7.142665,-4.20049 -7.142665,-47.57454 v -40.29565 l 3.215139,-3.74102 c 3.159152,-3.67587 3.524834,-3.75263 20.999998,-4.40768 L 122,503.33335 l 0.3617,-27.23831 c 0.19894,-14.98105 -0.10106,-27.68684 -0.66666,-28.23505 -0.5656,-0.54823 -5.6778,-1.19099 -11.36043,-1.42837 -5.68264,-0.23738 -10.33264,-0.8816 -10.33334,-1.4316 -7e-4,-0.55 -0.751267,-0.85 -1.667933,-0.66667 -0.916667,0.18333 -1.516667,-0.41667 -1.333334,-1.33333 0.183334,-0.91667 -0.166666,-1.66667 -0.777777,-1.66667 -0.611112,0 -1.187201,-1.05 -1.280199,-2.33333 -0.377394,-5.20787 -0.27327,-78.49941 0.114534,-80.61585 0.230025,-1.25538 1.828208,-3.50538 3.551517,-5 3.079022,-2.67042 4.540522,-2.71749 84.391932,-2.71749 h 81.25865 l -4.17157,-5 c -39.27092,-47.06974 -53.36164,-110.38469 -33.49244,-150.49433 12.48637,-25.20602 40.8478,-40.92096 73.95577,-40.97856 l 10.55042,-0.0184 -6.55042,-2.22802 c -23.10345,-7.8583 -37.6347,-22.54887 -44.59884,-45.08787 -6.45897,-20.904074 -2.09873,-26.559668 19.19236,-24.894096 26.10826,2.042411 50.10226,14.026566 67.27069,33.599326 l 6.48106,7.3887 4.96751,-6.7671 c 8.86983,-12.08313 27.84768,-27.920702 30.87627,-25.767146 1.72517,1.226792 8.59388,11.890716 8.59388,13.342386 0,0.63364 -3.7207,4.29856 -8.2682,8.14426 -4.54751,3.8457 -11.10139,10.52239 -14.56416,14.8371 -6.10292,7.60438 -17.84498,29.0242 -16.59558,30.2736 0.33954,0.33952 3.79972,-0.15895 7.6893,-1.10771 16.25977,-3.96615 41.7806,-0.43788 59.49086,8.22464 42.95017,21.00796 52.51597,79.84531 23.02655,141.63167 -5.3308,11.16911 -17.97099,30.94833 -25.49965,39.90155 l -4.20444,5 h 59.26796 59.26796 l 3.44575,3.1934 c 1.89516,1.75637 3.08277,3.55637 2.63913,4 -0.44362,0.44363 -0.11666,0.8066 0.72646,0.8066 1.10626,0 1.6321,9.55788 1.88889,34.33333 l 0.35584,34.33334 25.25609,0.16352 25.2561,0.1635 3.07724,3.57751 c 3.07093,3.57017 3.07724,3.66215 3.07724,44.8971 v 41.31958 l -3.27274,3.27272 c -3.01536,3.01538 -4.2687,3.27274 -15.93784,3.27274 h -12.6651 l -0.3955,35.29851 c -0.3888,34.70169 -0.44684,35.34982 -3.43241,38.33333 l -3.03693,3.03483 -236.96308,0.25648 c -132.0954,0.14298 -238.227596,-0.2572 -239.820422,-0.90426 z M 544.00002,550.80934 c 0,-16.87732 -0.31651,-19.9788 -2.10905,-20.66667 -3.00602,-1.15352 -28.70735,-0.82384 -31.86225,0.40869 -2.35793,0.9212 -2.06612,1.39159 2.74904,4.43127 7.29498,4.60511 16.91703,15.55468 23.35358,26.57558 2.9258,5.00966 5.89317,9.10848 6.59416,9.10848 0.75341,0 1.27452,-8.1189 1.27452,-19.85735 z m 33.23961,-78.20932 c 0.0632,-10.83235 -0.42753,-16.58792 -1.50628,-17.66667 -1.91738,-1.91739 -33.06666,-2.27103 -33.06666,-0.37541 0,0.67352 2.07388,2.50632 4.60862,4.07288 6.52803,4.03454 15.37831,14.28109 22.08336,25.56737 7.09523,11.94304 7.74927,10.98051 7.88096,-11.59817 z m -50.87816,-72.4295 c 0.24208,-18.19131 -0.1196,-27.74253 -1.09519,-28.91799 -1.1946,-1.4394 -38.31982,-1.70994 -206.36147,-1.50384 L 114,370.00001 l -0.35934,29.00422 -0.35935,29.0042 206.35935,-0.33754 206.35936,-0.33754 z M 185.33334,391.476 c 0,-6.5428 0.4902,-8.71212 2.10905,-9.33333 1.15998,-0.44514 41.91712,-0.80932 90.57143,-0.80932 98.69991,0 92.65286,-0.60824 92.65286,9.31952 0,10.22621 8.79115,9.34714 -93.47599,9.34714 h -91.85735 z m 195.47599,6.41496 c -1.54938,-4.03761 -0.8087,-12.36775 1.28592,-14.46237 1.15238,-1.15239 3.50952,-2.09524 5.2381,-2.09524 4.60745,0 7.33333,3.46416 7.33333,9.31952 0,8.17257 -0.92152,9.34714 -7.33333,9.34714 -3.98107,0 -5.96022,-0.63981 -6.52402,-2.10905 z m 25.4693,1.27656 c -0.51991,-0.51991 -0.94528,-4.37531 -0.94528,-8.56756 0,-8.33612 0.94976,-9.20765 10.07849,-9.24841 6.9274,-0.0309 8.80553,2.37774 8.33468,10.68896 l -0.41317,7.29284 -8.05472,0.38972 c -4.4301,0.21434 -8.4801,-0.0356 -9,-0.55555 z m 28.38805,-163.10189 c 0,-23.2933 -16.61557,-43.86045 -37.42452,-46.32497 -8.1188,-0.96155 -8.42031,0.61821 -1.08785,5.69961 8.50064,5.89094 22.58546,21.96275 29.6384,33.81955 3.5138,5.90711 6.9479,10.74019 7.63134,10.74019 0.68344,0 1.24263,-1.77047 1.24263,-3.93438 z m -98.30052,-77.32176 c 0.37242,-1.4242 0.34241,-2.9242 -0.0667,-3.33333 -0.40913,-0.40912 -5.29387,-0.70179 -10.85499,-0.65036 l -10.1111,0.0935 7.05116,2.40209 c 3.87813,1.32115 7.42813,2.77908 7.88888,3.23983 1.77473,1.77473 5.44665,0.71901 6.09277,-1.75174 z"
       id="path24"
       inkscape:connector-curvature="0" />
    <path
       style="fill:#f98574;stroke-width:1.33333337"
       d="m 87.087166,598.66315 c -1.602062,-0.64865 -3.552062,-2.37378 -4.333334,-3.8336 -0.914891,-1.70949 -1.420496,-16.94442 -1.420496,-42.80248 V 511.8788 l 3.272727,-3.27272 c 3.1526,-3.1526 3.935653,-3.27273 21.333337,-3.27273 H 124 v -29.33333 -29.33334 l -8.33333,-0.008 c -11.48054,-0.0107 -17.561267,-1.90417 -19.454512,-6.05938 -1.059488,-2.32478 -1.545488,-15.68405 -1.545488,-42.48221 0,-37.52817 0.110467,-39.23122 2.76344,-42.60393 l 2.76344,-3.51315 h 81.82454 c 47.90898,0 82.13636,-0.50453 82.57684,-1.21724 0.41376,-0.66949 -2.11427,-4.5765 -5.61785,-8.68226 -19.04965,-22.32381 -34.95954,-57.82482 -39.18375,-87.43383 -0.78467,-5.5 -1.10588,-16.35505 -0.71382,-24.12233 2.22534,-44.08544 27.56689,-69.53278 74.9205,-75.23325 8.2804,-0.9968 22.86261,1.16496 33.07576,4.90336 8.37487,3.06551 9.8316,2.61023 10.5004,-3.28172 l 0.42384,-3.73393 -12.66667,-0.51204 c -35.2718,-1.42583 -59.1152,-21.23198 -65.38978,-54.317775 -1.46219,-7.710104 0.37165,-12.729317 5.08286,-13.911756 6.3642,-1.597315 26.20954,0.57004 36.97359,4.037972 15.21117,4.900695 26.30129,11.889219 38.88673,24.504789 6.03555,6.05 11.47577,11 12.08937,11 0.61358,0 2.26024,-1.95 3.65921,-4.33333 3.2114,-5.47105 21.54423,-23.562115 27.05008,-26.693361 l 4.14977,-2.360029 4.08242,5.933595 c 2.24533,3.263478 4.08242,6.467825 4.08242,7.120775 0,0.65294 -3.75,4.19328 -8.33333,7.86741 -8.92977,7.15837 -16.57911,16.33101 -24.248,29.07681 -4.35207,7.2332 -8.0034,16.58119 -6.90547,17.67911 0.24251,0.24252 6.0061,-0.51947 12.80796,-1.69327 10.1385,-1.74962 14.35143,-1.87013 23.37914,-0.66877 44.50066,5.92193 68.84395,31.78509 70.91132,75.33871 1.73044,36.45505 -14.86756,82.02959 -40.72887,111.83271 -3.07051,3.53853 -5.23984,6.98853 -4.82072,7.66667 0.44835,0.72545 25.38784,1.23298 60.58656,1.23298 h 59.82454 l 2.76344,3.51315 c 2.63699,3.35239 2.76344,5.12172 2.76344,38.66667 v 35.15352 h 25.03665 c 20.50218,0 25.57336,0.37592 28,2.0756 2.95475,2.06958 2.96335,2.19652 2.96335,43.74516 0,33.47413 -0.36459,42.16817 -1.85376,44.20473 -1.55613,2.12814 -4.00827,2.62171 -15.27293,3.07416 l -13.41916,0.53899 -0.39374,35.8019 c -0.35496,32.27544 -0.62825,36.0362 -2.77461,38.18068 -2.26501,2.26304 -13.9104,2.39117 -239.33334,2.63337 -134.93582,0.14499 -238.20656,-0.25317 -239.865314,-0.92479 z M 544.00002,550.80934 c 0,-16.87732 -0.31651,-19.9788 -2.10905,-20.66667 -3.00602,-1.15352 -28.70735,-0.82384 -31.86225,0.40869 -2.35793,0.9212 -2.06612,1.39159 2.74904,4.43127 7.29498,4.60511 16.91703,15.55468 23.35358,26.57558 2.9258,5.00966 5.89317,9.10848 6.59416,9.10848 0.75341,0 1.27452,-8.1189 1.27452,-19.85735 z m 39.69249,-75.0772 0.35915,-28.93455 -21.02581,-0.39879 c -11.56422,-0.21933 -111.17583,-0.24113 -221.35917,-0.0484 l -200.33334,0.35034 v 28.42744 c 0,15.63509 0.40177,28.8292 0.89282,29.32025 0.49104,0.49105 99.94105,0.74105 221.00001,0.55556 l 220.10718,-0.33731 z m -182.8036,15.37898 c -0.4889,-0.48888 -0.8889,-4.42024 -0.8889,-8.73634 v -7.84746 l 7,0.40302 7,0.40301 0.41062,6.43692 c 0.22977,3.60196 -0.28255,7.27216 -1.16326,8.33333 -1.5871,1.91236 -10.7099,2.6561 -12.35846,1.00752 z m 26.69348,0.0268 c -0.50364,-0.50361 -0.91571,-4.42785 -0.91571,-8.72052 v -7.80482 l 27.66667,0.36038 27.66667,0.36039 v 8 8 l -26.75096,0.36015 c -14.71304,0.19808 -27.16305,-0.0519 -27.66667,-0.55556 z m 98.77908,-90.96741 c 0.24208,-18.19131 -0.1196,-27.74254 -1.09519,-28.91799 -1.1946,-1.4394 -38.31982,-1.70995 -206.36147,-1.50384 L 114,370.00001 l -0.35934,29.00422 -0.35935,29.0042 206.35935,-0.33754 206.35936,-0.33754 0.36145,-27.16283 z M 185.33334,391.476 c 0,-6.5428 0.4902,-8.71212 2.10905,-9.33333 1.15998,-0.44514 41.91712,-0.80932 90.57143,-0.80932 98.69991,0 92.65286,-0.60824 92.65286,9.31952 0,10.22621 8.79115,9.34714 -93.47599,9.34714 h -91.85735 z m 195.47599,6.41496 c -1.54938,-4.03761 -0.8087,-12.36775 1.28592,-14.46237 1.15238,-1.15239 3.50952,-2.09524 5.2381,-2.09524 4.60745,0 7.33333,3.46416 7.33333,9.31952 0,8.17257 -0.92152,9.34714 -7.33333,9.34714 -3.98107,0 -5.96022,-0.63981 -6.52402,-2.10905 z m 25.4693,1.27656 c -0.51991,-0.51991 -0.94528,-4.37531 -0.94528,-8.56756 0,-8.33612 0.94976,-9.20765 10.07849,-9.24841 6.9274,-0.0309 8.80553,2.37774 8.33468,10.68896 l -0.41317,7.29284 -8.05472,0.38972 c -4.4301,0.21434 -8.4801,-0.0356 -9,-0.55555 z m 28.38805,-163.10189 c 0,-23.2933 -16.61557,-43.86045 -37.42452,-46.32497 -8.1188,-0.96155 -8.42031,0.61821 -1.08785,5.69961 8.50064,5.89094 22.58546,21.96275 29.6384,33.81955 3.5138,5.90711 6.9479,10.74019 7.63134,10.74019 0.68344,0 1.24263,-1.77047 1.24263,-3.93438 z M 336.76237,134.51184 c 1.40921,-2.28016 -17.7258,-19.93441 -26.79121,-24.718 -14.27811,-7.53417 -31.30448,-11.019125 -31.30448,-6.40739 0,3.14717 4.87454,11.99824 9.52438,17.29411 5.08767,5.79453 14.20287,11.29112 22.38142,13.49628 7.79898,2.10284 24.96162,2.32236 26.18989,0.335 z"
       id="path22"
       inkscape:connector-curvature="0" />
    <path
       style="fill:#995657;stroke-width:1.33333337"
       d="m 85.866275,597.64627 c -4.063499,-2.71328 -4.532939,-7.35338 -4.532939,-44.80513 0,-20.90047 0.557155,-39.46628 1.238123,-41.25736 1.818995,-4.78432 7.836188,-6.25043 25.653021,-6.25043 h 15.82654 l -0.35884,-29.66667 -0.35884,-29.66666 -11.25457,-0.83558 c -17.020456,-1.26364 -16.078767,1.46827 -16.078767,-46.64547 0,-38.07452 0.118958,-39.97125 2.666667,-42.51896 2.6088,-2.6088 4.44444,-2.66666 84.58798,-2.66666 48.73093,0 82.23005,-0.49955 82.68333,-1.23299 0.41912,-0.67813 -1.67424,-4.04787 -4.65192,-7.48831 -17.91381,-20.6978 -32.77605,-50.86067 -39.39171,-79.94537 -2.91614,-12.82035 -3.28692,-38.83123 -0.72224,-50.66667 7.95107,-36.69242 40.8455,-59.58332 82.8279,-57.63911 10.10968,0.46817 16.31583,1.50832 22.33392,3.74313 9.11876,3.38624 10.90773,2.87008 11.38581,-3.28513 l 0.28027,-3.60831 -12.66667,-0.51793 c -35.28417,-1.44275 -59.11585,-21.24132 -65.38978,-54.323665 -1.46219,-7.710104 0.37165,-12.729317 5.08286,-13.911756 6.3642,-1.597315 26.20954,0.57004 36.97359,4.037972 15.21117,4.900695 26.30129,11.889219 38.88673,24.504789 6.03555,6.05 11.52541,11 12.19966,11 0.67425,0 2.71832,-2.25 4.54236,-5 7.16545,-10.8029 26.66089,-28.014562 30.34195,-26.787545 0.79024,0.263416 2.94408,3.006516 4.78629,6.095778 l 3.34948,5.616837 -3.66361,3.03747 c -15.89766,13.18058 -26.03054,25.86696 -33.24214,41.61919 -4.7035,10.2738 -3.99942,11.58069 4.98363,9.25052 25.00173,-6.48538 60.60696,2.95906 78.45963,20.81173 27.10489,27.10489 28.03624,78.76394 2.34395,130.01211 -6.12566,12.21877 -15.75019,26.87777 -23.60731,35.95596 -2.97768,3.44044 -5.07104,6.81018 -4.65192,7.48831 0.44852,0.72575 25.62047,1.23299 61.18673,1.23299 54.54586,0 60.60277,0.21422 62.25466,2.2019 1.40995,1.69658 1.98292,10.34119 2.49659,37.66667 l 0.66666,35.46476 26.13298,0.66667 c 19.39436,0.49476 26.70034,1.13853 28.33333,2.49658 1.95877,1.62902 2.20036,6.3954 2.20036,43.41185 0,33.27649 -0.368,42.08516 -1.84241,44.10154 -1.5342,2.09814 -4.04364,2.61426 -15,3.0851 -7.68368,0.33018 -13.56512,1.19074 -14.13718,2.0685 -0.53877,0.82671 -0.98877,16.86011 -1,35.62978 -0.0188,31.35295 -0.2186,34.30604 -2.45873,36.33333 -2.24988,2.03612 -20.82312,2.20508 -240.33334,2.18624 -130.84226,-0.0107 -238.555201,-0.46122 -239.362085,-1 z m 70.133735,-45.0061 v -28.69319 l -28.33334,0.35985 -28.333333,0.35985 -0.362507,26.62906 c -0.199379,14.64597 -0.06821,27.39597 0.291487,28.33333 0.502206,1.30874 7.162273,1.70428 28.695843,1.70428 h 28.04185 z m 394.66668,0.0265 V 524.00003 H 362.66668 174.66667 v 28.66667 28.66667 h 188.00001 188.00001 z m -354.40615,19.52257 c -1.19227,-0.7562 -1.61169,-3.58097 -1.33333,-8.97958 l 0.40613,-7.87634 h 53.33334 53.33333 l 0.40676,7.10824 c 0.23433,4.09475 -0.25883,7.91023 -1.16325,9 -1.30598,1.5736 -10.11975,1.88832 -52.40676,1.87135 -27.96022,-0.0107 -51.61951,-0.51689 -52.57622,-1.12368 z m 121.16263,-0.74766 c -0.90443,-1.08978 -1.39759,-4.90526 -1.16325,-9 l 0.40676,-7.10826 h 6.66666 6.66667 l 0.40676,7.10824 c 0.48169,8.41752 -1.12515,10.89176 -7.07343,10.89176 -2.38708,0 -5.04665,-0.85129 -5.91017,-1.89176 z m 266.26934,-95.70946 0.35915,-28.93455 -21.02581,-0.39878 c -11.56422,-0.21934 -111.17583,-0.24114 -221.35917,-0.0484 l -200.33334,0.35033 v 28.42744 c 0,15.63509 0.40177,28.8292 0.89282,29.32025 0.49104,0.49106 99.94105,0.74106 221.00001,0.55556 l 220.10718,-0.33732 0.35916,-28.93454 z m -182.8036,15.37899 c -0.4889,-0.4889 -0.8889,-4.42026 -0.8889,-8.73636 v -7.84746 l 7,0.40302 7,0.40301 0.41062,6.43692 c 0.22977,3.60196 -0.28255,7.27216 -1.16326,8.33333 -1.5871,1.91236 -10.7099,2.6561 -12.35846,1.00752 z m 26.69348,0.0268 c -0.50364,-0.50363 -0.91571,-4.42787 -0.91571,-8.72054 v -7.80482 l 27.66667,0.36038 27.66667,0.36039 v 8 8 l -26.75096,0.36015 c -14.71304,0.19808 -27.16305,-0.0519 -27.66667,-0.55556 z m 98.77648,-92.14213 0.35885,-29.67085 -207.02552,0.33752 -207.02553,0.33753 -0.36129,27.96555 c -0.19871,15.38105 -0.0668,28.73295 0.2931,29.67088 0.5283,1.37673 40.41973,1.64028 207.02797,1.36779 l 206.37357,-0.33755 z m -326.35886,-0.32913 -14,-0.66667 v -7.33333 -7.33333 h 91.33333 91.33334 l 0.40353,7.0149 c 0.28595,4.97102 -0.12346,7.21715 -1.4053,7.70903 -2.40854,0.92424 -149.803,1.45997 -167.6649,0.6094 z m 181.87404,-1.84747 c -0.38992,-1.01609 -0.52109,-4.46609 -0.29149,-7.66666 l 0.41745,-5.8192 h 5.33334 5.33333 l 0.39987,7.66666 0.39988,7.66667 h -5.44172 c -3.4074,0 -5.70675,-0.69065 -6.15066,-1.84747 z m 25.05943,-5.8192 0.39987,-7.66666 h 7.33333 7.33333 l 0.39987,7.66666 0.39988,7.66667 h -8.13308 -8.13308 z m -74.43423,-44.81334 c 4.30792,-1.936 8.39636,-3.51999 9.08544,-3.51999 0.68907,0 4.66442,1.58489 8.8341,3.52199 6.10598,2.83665 10.18882,3.64672 20.98164,4.16293 12.02046,0.57495 14.00869,0.33063 19.30734,-2.37256 12.62567,-6.44112 27.96712,-25.28536 39.60342,-48.6457 21.28031,-42.7211 21.37473,-87.39529 0.22942,-108.5406 -19.65944,-19.65944 -60.00425,-23.21363 -81.07484,-7.14231 -2.49545,1.90338 -6.15505,3.46068 -8.13243,3.46068 -1.97737,0 -5.63697,-1.5573 -8.13242,-3.46068 -12.32875,-9.4036 -33.11682,-12.87368 -50.53424,-8.4355 -32.52231,8.28709 -45.98325,26.51946 -45.86191,62.11841 0.0288,8.43334 0.83293,18.93334 1.78708,23.33334 8.0018,36.89972 32.34437,76.34122 53.92447,87.37209 4.77696,2.44179 7.20209,2.7299 18.81702,2.23546 10.73334,-0.45691 14.86068,-1.25398 21.16591,-4.08756 z m 4.26312,-211.67483 c 1.40921,-2.28016 -17.7258,-19.93441 -26.79121,-24.718 -14.27811,-7.53417 -31.30448,-11.019125 -31.30448,-6.40739 0,3.14717 4.87454,11.99824 9.52438,17.29411 5.08767,5.79453 14.20287,11.29112 22.38142,13.49628 7.79898,2.10284 24.96162,2.32236 26.18989,0.335 z"
       id="path20"
       inkscape:connector-curvature="0" />
    <path
       style="fill:#b05d22;stroke-width:1.33333337"
       d="m 86.095242,595.23811 c -1.814334,-1.81433 -2.095239,-7.61766 -2.095239,-43.28641 0,-39.35992 0.114657,-41.25255 2.579012,-42.57144 1.418456,-0.75914 9.769383,-1.38024 18.557615,-1.38024 8.78824,0 16.77768,-0.30662 17.75432,-0.68135 1.41956,-0.54469 1.7196,-6.89611 1.49589,-31.66667 l -0.27983,-30.98532 -11.93041,-0.38173 c -9.01937,-0.2886 -12.367127,-0.90764 -13.720177,-2.53703 -1.381852,-1.66408 -1.870864,-10.54151 -2.145641,-38.9516 -0.195739,-20.23797 -0.02217,-38.72701 0.385709,-41.08677 1.534972,-8.8805 -3.80718,-8.3762 88.732089,-8.3762 51.59147,0 83.90476,-0.48362 83.90476,-1.25575 0,-0.69065 -3.02945,-4.71768 -6.73212,-8.94892 -18.74252,-21.41814 -34.74759,-55.03083 -39.85796,-83.70688 -0.77545,-4.35135 -1.40992,-14.60538 -1.40992,-22.78673 0,-33.96609 12.37724,-56.86004 37.33334,-69.05474 15.12449,-7.39052 24.93121,-9.59976 42,-9.46164 12.53176,0.10133 16.08953,0.64984 24.4416,3.76777 5.37621,2.007 10.5931,3.33513 11.5931,2.9514 1.80492,-0.69263 4.22823,-9.68603 2.95343,-10.96083 -0.36592,-0.36592 -6.58795,-0.89981 -13.82672,-1.18642 C 302.14,151.7527 284.0019,143.2549 272.58473,127.74575 263.36622,115.2233 257.14333,95.468861 260.26137,88.625514 c 1.98655,-4.360012 5.51815,-5.132559 19.53647,-4.273648 23.8029,1.45842 43.24922,10.695765 61.71309,29.314804 6.36319,6.41667 12.07635,11.62567 12.69592,11.57557 0.61958,-0.0501 4.59084,-4.51003 8.82504,-9.91095 7.18476,-9.16448 22.80611,-22.688658 24.76474,-21.440064 0.47853,0.305052 2.02522,2.724167 3.43709,5.375809 l 2.56705,4.821175 -3.23372,2.1328 c -7.12853,4.70165 -22.30045,21.91727 -25.88638,29.37334 -2.04708,4.25644 -4.51839,9.23899 -5.49179,11.07232 -0.97339,1.83334 -2.80308,5.28935 -4.06599,7.68002 -3.43977,6.5115 -1.25664,7.93517 8.50047,5.54333 10.57727,-2.59289 30.99832,-2.34827 41.70999,0.49964 21.08117,5.60485 38.72076,18.2976 47.03468,33.84432 8.14921,15.23871 11.42304,43.48519 7.5554,65.18782 -5.11037,28.67605 -21.11544,62.28874 -39.85796,83.70688 -3.70267,4.23124 -6.73212,8.25827 -6.73212,8.94892 0,0.76744 24.10941,1.25575 62,1.25575 60.22223,0 62.07647,0.0764 64.66667,2.66666 2.53831,2.53831 2.66667,4.44444 2.66667,39.6 0,28.72592 0.35556,36.57778 1.6,35.33334 1.12644,-1.12644 8.73406,-1.6 25.70332,-1.6 19.65744,0 24.64992,0.38285 27.06666,2.0756 2.95475,2.06958 2.96335,2.19652 2.96335,43.74516 0,33.87108 -0.35397,42.15393 -1.8914,44.25773 -1.65185,2.26036 -3.72063,2.61515 -16.33333,2.80115 l -14.44194,0.21297 -0.66666,36.17065 c -0.55654,30.19549 -0.99706,36.37921 -2.66667,37.43326 -1.23897,0.7822 -92.1453,1.27042 -238.90477,1.28307 -213.60767,0.0184 -237.110815,-0.18563 -239.000008,-2.07483 z m 70.971428,-12.83809 c 1.85094,-1.85093 2.29699,-56.57087 0.48442,-59.42667 -0.8271,-1.30313 -7.8121,-1.61037 -30.31292,-1.33333 l -29.238167,0.36 -0.360177,29.30179 c -0.198097,16.11598 -0.06693,30.06598 0.291487,31 0.908418,2.3673 56.773497,2.46008 59.135357,0.0983 z m 395.60002,-29.73333 v -30.66667 l -189.25181,-0.33794 c -150.52114,-0.26877 -189.46897,0.004 -190.31293,1.33334 -1.80689,2.84588 -1.34398,57.56256 0.50262,59.40916 1.23861,1.23861 44.64712,1.52751 190.33334,1.26667 l 188.72878,-0.3379 z m -356.1358,16.12693 c -0.39532,-1.0302 -0.5265,-3.8802 -0.2915,-6.33333 l 0.42728,-4.46027 51.66667,-0.34899 51.66667,-0.349 v 6.68234 6.68232 h -51.37517 c -42.88955,0 -51.49391,-0.30938 -52.09395,-1.87307 z m 122.13579,-4.7936 v -6.66667 h 4.66666 4.66667 v 6.66667 6.66667 h -4.66667 -4.66666 z m 254.66667,-58.5076 10,-0.82574 0.35934,-29 0.35933,-29 h -19.93076 c -14.90409,0 -20.38244,-0.45166 -21.72164,-1.79088 -1.13044,-1.13042 -2.76361,-1.41084 -4.42857,-0.76037 -1.45074,0.56677 -92.0377,1.12003 -201.30437,1.22947 -109.26667,0.10946 -197.91668,0.50161 -197.00001,0.87149 1.26376,0.50995 1.66667,7.89785 1.66667,30.5614 v 29.88889 l 211.00001,-0.17426 c 116.05,-0.0959 215.5,-0.54586 221,-1 z m -172.44444,-14.3813 c -0.4889,-0.48888 -0.8889,-4.42024 -0.8889,-8.73634 v -7.84746 l 7,0.40302 7,0.40301 0.41062,6.43692 c 0.22977,3.60196 -0.28255,7.27216 -1.16326,8.33333 -1.5871,1.91236 -10.7099,2.6561 -12.35846,1.00752 z m 26.69348,0.0268 c -0.50364,-0.50361 -0.91571,-4.42785 -0.91571,-8.72052 v -7.80482 l 27.66667,0.36038 27.66667,0.36039 v 8 8 l -26.75096,0.36015 c -14.71304,0.19808 -27.16305,-0.0519 -27.66667,-0.55556 z m 98.77647,-92.13791 0.35884,-29.66666 -69.69218,-0.0204 c -38.33069,-0.0107 -68.92528,-0.50708 -67.98797,-1.1019 0.9373,-0.5948 -5.6627,-1.11213 -14.66667,-1.14962 -9.66065,-0.0403 -15.00457,0.35694 -13.03753,0.96897 1.877,0.58401 -6.56972,1.03715 -19.33334,1.03715 -13.14693,0 -21.26671,-0.44591 -19.33333,-1.06171 1.98557,-0.63243 -3.62098,-1.00993 -13.86634,-0.93365 -9.45982,0.0704 -16.35982,0.45801 -15.33333,0.86128 1.02648,0.40326 -39.23367,1.03321 -89.467,1.39988 l -91.33334,0.66666 -0.36129,27.96555 c -0.19871,15.38105 -0.0668,28.73295 0.2931,29.67088 0.5283,1.37673 40.41973,1.64028 207.02797,1.36779 l 206.37357,-0.33755 z m -326.35885,-0.33333 -14,-0.66667 v -7.33333 -7.33333 h 91.33333 91.33334 l 0.40353,7.0149 c 0.28595,4.97102 -0.12346,7.21715 -1.4053,7.70903 -2.40854,0.92424 -149.803,1.45997 -167.6649,0.6094 z m 181.87404,-1.84747 c -0.38992,-1.01609 -0.52109,-4.46609 -0.29149,-7.66666 l 0.41745,-5.8192 h 5.33334 5.33333 l 0.39987,7.66666 0.39988,7.66667 h -5.44172 c -3.4074,0 -5.70675,-0.69065 -6.15066,-1.84747 z m 25.05943,-5.8192 0.39987,-7.66666 h 7.33333 7.33333 l 0.39987,7.66666 0.39988,7.66667 h -8.13308 -8.13308 z m -75.50879,-42.20364 c 9.35945,-4.2849 10.45526,-4.28609 19.77043,-0.0215 5.70051,2.60977 10.53903,3.62184 20.0196,4.18745 11.22727,0.66983 13.16253,0.43004 18.97709,-2.35132 8.41643,-4.02595 23.75939,-19.3521 31.76111,-31.72632 8.44621,-13.0616 17.06366,-31.54156 21.55206,-46.21804 3.37269,-11.02824 3.67522,-13.83555 3.73594,-34.66667 0.0599,-20.55042 -0.21457,-23.35134 -2.93989,-30 -9.60414,-23.43011 -31.47136,-36.57059 -60.96768,-36.63676 -14.98276,-0.0336 -21.96866,1.94961 -33.47135,9.5022 -3.74256,2.45734 -7.58047,4.46789 -8.52866,4.46789 -0.94818,0 -4.91853,-2.12043 -8.82298,-4.71205 -11.41422,-7.57632 -16.81195,-9.09444 -32.51035,-9.14358 -30.00345,-0.0939 -52.22051,13.00378 -61.60631,36.31891 -2.75385,6.8408 -3.02791,9.62969 -2.96793,30.20339 0.0607,20.83112 0.36325,23.63843 3.73594,34.66667 4.4884,14.67648 13.10585,33.15644 21.55206,46.21804 7.70569,11.91644 23.14772,27.52341 31.28624,31.62044 5.34696,2.69172 7.40733,2.95156 18.93023,2.38735 10.17245,-0.49808 14.54352,-1.37171 20.49445,-4.09614 z m 5.33768,-214.28453 c 1.40921,-2.28016 -17.7258,-19.93441 -26.79121,-24.718 -14.27811,-7.53417 -31.30448,-11.019125 -31.30448,-6.40739 0,3.14717 4.87454,11.99824 9.52438,17.29411 5.08767,5.79453 14.20287,11.29112 22.38142,13.49628 7.79898,2.10284 24.96162,2.32236 26.18989,0.335 z"
       id="path18"
       inkscape:connector-curvature="0" />
    <path
       style="fill:#0d895a;stroke-width:1.33333337"
       d="m 86.095242,595.23811 c -1.814334,-1.81433 -2.095239,-7.61766 -2.095239,-43.28641 0,-39.35992 0.114653,-41.25255 2.579012,-42.57144 1.418456,-0.75914 9.968456,-1.38943 19.000005,-1.40066 9.03154,-0.0107 17.02098,-0.46122 17.75432,-1 0.82036,-0.6027 1.33333,-12.52153 1.33333,-30.97958 v -30 l 5.20624,-0.42612 c 2.86343,-0.23436 6.61343,-0.0729 8.33333,0.35874 l 3.1271,0.78484 v 29.9746 29.9746 l 211.00001,-0.17426 c 116.05,-0.0959 215.5,-0.54586 221,-1 l 10,-0.82574 0.35934,-29 0.35933,-29 h -19.25028 c -10.58765,0 -20.22501,-0.37404 -21.41636,-0.8312 -1.75851,-0.6748 -1.99825,-1.99192 -1.27419,-7 0.49054,-3.39284 1.48966,-6.9188 2.22028,-7.83547 2.14654,-2.69313 48.7931,-2.33121 52.7052,0.40894 2.95475,2.06958 2.96335,2.19652 2.96335,43.74516 0,33.87108 -0.35397,42.15393 -1.8914,44.25773 -1.65185,2.26036 -3.72063,2.61515 -16.33333,2.80115 l -14.44194,0.21297 -0.66666,36.17065 c -0.55654,30.19549 -0.99706,36.37921 -2.66667,37.43326 -1.23897,0.7822 -92.1453,1.27042 -238.90477,1.28307 -213.60767,0.0184 -237.110815,-0.18563 -239.000008,-2.07483 z m 70.971428,-12.83809 c 1.85094,-1.85093 2.29699,-56.57087 0.48442,-59.42667 -0.8271,-1.30313 -7.8121,-1.61037 -30.31292,-1.33333 l -29.238167,0.36 -0.360177,29.30179 c -0.198097,16.11598 -0.06693,30.06598 0.291487,31 0.908418,2.3673 56.773497,2.46008 59.135357,0.0983 z m 395.60002,-29.73333 v -30.66667 l -189.25181,-0.33794 c -150.52114,-0.26877 -189.46897,0.004 -190.31293,1.33334 -1.80689,2.84588 -1.34398,57.56256 0.50262,59.40916 1.23861,1.23861 44.64712,1.52751 190.33334,1.26667 l 188.72878,-0.3379 z m -356.1358,16.12693 c -0.39532,-1.0302 -0.5265,-3.8802 -0.2915,-6.33333 l 0.42728,-4.46027 51.66667,-0.34899 51.66667,-0.349 v 6.68234 6.68232 h -51.37517 c -42.88955,0 -51.49391,-0.30938 -52.09395,-1.87307 z m 122.13579,-4.7936 v -6.66667 h 4.66666 4.66667 v 6.66667 6.66667 h -4.66667 -4.66666 z m 82.22223,-72.8889 c -0.4889,-0.48888 -0.8889,-4.42024 -0.8889,-8.73634 v -7.84746 l 7,0.40302 7,0.40301 0.41062,6.43692 c 0.22977,3.60196 -0.28255,7.27216 -1.16326,8.33333 -1.5871,1.91236 -10.7099,2.6561 -12.35846,1.00752 z m 26.69348,0.0268 c -0.50364,-0.50361 -0.91571,-4.42785 -0.91571,-8.72052 v -7.80482 l 27.66667,0.36038 27.66667,0.36039 v 8 8 l -26.75096,0.36015 c -14.71304,0.19808 -27.16305,-0.0519 -27.66667,-0.55556 z M 293.86877,366.59781 c -7.89992,-1.07374 -20.47001,-8.48665 -24.08256,-14.2021 -1.29635,-2.05096 -4.88564,-6.59619 -7.97621,-10.10048 -17.64678,-20.0091 -34.07375,-54.85614 -39.06674,-82.87343 -0.77545,-4.35135 -1.40992,-14.60538 -1.40992,-22.78673 0,-33.96609 12.37724,-56.86004 37.33334,-69.05474 15.12449,-7.39052 24.93121,-9.59976 42,-9.46164 12.53176,0.10133 16.08953,0.64984 24.4416,3.76777 5.37621,2.007 10.5931,3.33513 11.5931,2.9514 1.80492,-0.69263 4.22823,-9.68603 2.95343,-10.96083 -0.36592,-0.36592 -6.58795,-0.89981 -13.82672,-1.18642 C 302.14,151.7527 284.0019,143.2549 272.58473,127.74575 263.36622,115.2233 257.14333,95.468861 260.26137,88.625514 c 1.98655,-4.360012 5.51815,-5.132559 19.53647,-4.273648 23.8029,1.45842 43.24922,10.695765 61.71309,29.314804 6.36319,6.41667 12.07635,11.62567 12.69592,11.57557 0.61958,-0.0501 4.59084,-4.51003 8.82504,-9.91095 7.18476,-9.16448 22.80611,-22.688658 24.76474,-21.440064 0.47853,0.305052 2.02522,2.724167 3.43709,5.375809 l 2.56705,4.821175 -3.23372,2.1328 c -7.12853,4.70165 -22.30045,21.91727 -25.88638,29.37334 -2.04708,4.25644 -4.51839,9.23899 -5.49179,11.07232 -0.97339,1.83334 -2.80308,5.28935 -4.06599,7.68002 -3.43977,6.5115 -1.25664,7.93517 8.50047,5.54333 10.57727,-2.59289 30.99832,-2.34827 41.70999,0.49964 14.01693,3.72668 27.79156,11.19077 36.00555,19.5104 13.97493,14.15471 19.99445,31.23529 19.99445,56.73501 0,16.76501 -1.31148,25.64857 -6.20513,42.03161 -10.13178,33.91925 -38.26881,75.90879 -57.10002,85.21164 -5.96416,2.94636 -7.98821,3.19813 -24.50569,3.04828 -12.72662,-0.11547 -20.08366,-0.81731 -25.09687,-2.39416 -6.50021,-2.04457 -7.67667,-2.05709 -14.0923,-0.15007 -7.96601,2.3679 -30.33312,3.59248 -40.46457,2.21544 z m 37.55592,-17.80144 c 9.35945,-4.2849 10.45526,-4.28609 19.77043,-0.0215 5.70051,2.60977 10.53903,3.62184 20.0196,4.18745 11.22727,0.66983 13.16253,0.43004 18.97709,-2.35132 8.41643,-4.02595 23.75939,-19.3521 31.76111,-31.72632 8.44621,-13.0616 17.06366,-31.54156 21.55206,-46.21804 3.37269,-11.02824 3.67522,-13.83555 3.73594,-34.66667 0.0599,-20.55042 -0.21457,-23.35134 -2.93989,-30 -9.60414,-23.43011 -31.47136,-36.57059 -60.96768,-36.63676 -14.98276,-0.0336 -21.96866,1.94961 -33.47135,9.5022 -3.74256,2.45734 -7.58047,4.46789 -8.52866,4.46789 -0.94818,0 -4.91853,-2.12043 -8.82298,-4.71205 -11.41422,-7.57632 -16.81195,-9.09444 -32.51035,-9.14358 -30.00345,-0.0939 -52.22051,13.00378 -61.60631,36.31891 -2.75385,6.8408 -3.02791,9.62969 -2.96793,30.20339 0.0607,20.83112 0.36325,23.63843 3.73594,34.66667 4.4884,14.67648 13.10585,33.15644 21.55206,46.21804 7.70569,11.91644 23.14772,27.52341 31.28624,31.62044 5.34696,2.69172 7.40733,2.95156 18.93023,2.38735 10.17245,-0.49808 14.54352,-1.37171 20.49445,-4.09614 z m 5.33768,-214.28453 c 1.40921,-2.28016 -17.7258,-19.93441 -26.79121,-24.718 -14.27811,-7.53417 -31.30448,-11.019125 -31.30448,-6.40739 0,3.14717 4.87454,11.99824 9.52438,17.29411 5.08767,5.79453 14.20287,11.29112 22.38142,13.49628 7.79898,2.10284 24.96162,2.32236 26.18989,0.335 z"
       id="path16"
       inkscape:connector-curvature="0" />
    <path
       style="fill:#74353e;stroke-width:1.33333337"
       d="m 86.095242,595.23811 c -1.814264,-1.81426 -2.095239,-7.61477 -2.095239,-43.25464 0,-31.46333 0.392623,-41.41352 1.666667,-42.23809 3.505318,-2.2687 45.78251,-2.73526 258.92084,-2.85735 153.74191,-0.0881 220.43558,0.3012 221.63139,1.29364 2.52323,2.09409 3.76036,10.47789 1.96932,13.3458 -1.03811,1.66228 -1.52153,13.42616 -1.52153,37.02588 0,29.66724 -0.29816,34.8877 -2.09524,36.68476 -1.88906,1.88906 -25.43146,2.09524 -239.23811,2.09524 -213.80664,0 -237.349044,-0.20618 -239.238098,-2.09524 z m 70.971428,-12.83809 c 1.85094,-1.85093 2.29699,-56.57087 0.48442,-59.42667 -0.8271,-1.30313 -7.8121,-1.61037 -30.31292,-1.33333 l -29.238167,0.36 -0.360177,29.30179 c -0.198097,16.11598 -0.06693,30.06598 0.291487,31 0.908418,2.3673 56.773497,2.46008 59.135357,0.0983 z m 395.60002,-29.73333 v -30.66667 l -189.25181,-0.33794 c -150.52114,-0.26877 -189.46897,0.004 -190.31293,1.33334 -1.80689,2.84588 -1.34398,57.56256 0.50262,59.40916 1.23861,1.23861 44.64712,1.52751 190.33334,1.26667 l 188.72878,-0.3379 z m -356.1358,16.12693 c -0.39532,-1.0302 -0.5265,-3.8802 -0.2915,-6.33333 l 0.42728,-4.46027 51.66667,-0.34899 51.66667,-0.349 v 6.68234 6.68232 h -51.37517 c -42.88955,0 -51.49391,-0.30938 -52.09395,-1.87307 z m 122.13579,-4.7936 v -6.66667 h 4.66666 4.66667 v 6.66667 6.66667 h -4.66667 -4.66666 z M 128.33334,445.71168 c 2.01666,-0.3055 5.31666,-0.3055 7.33333,0 2.01667,0.3055 0.36667,0.55546 -3.66667,0.55546 -4.03333,0 -5.68333,-0.24996 -3.66666,-0.55546 z m 413.89319,-7.71167 c 1.01038,-6.59088 1.78016,-7.71301 1.75308,-2.55556 -0.0107,2.1389 -0.59423,4.7889 -1.29555,5.8889 -0.86836,1.36199 -1.01431,0.29863 -0.45753,-3.33334 z m -248.35776,-71.4022 c -7.89992,-1.07374 -20.47001,-8.48665 -24.08256,-14.2021 -1.29635,-2.05096 -4.88564,-6.59619 -7.97621,-10.10048 -17.64678,-20.0091 -34.07375,-54.85614 -39.06674,-82.87343 -0.77545,-4.35135 -1.40992,-14.60538 -1.40992,-22.78673 0,-33.96609 12.37724,-56.86004 37.33334,-69.05474 15.12449,-7.39052 24.93121,-9.59976 42,-9.46164 12.53176,0.10133 16.08953,0.64984 24.4416,3.76777 5.37621,2.007 10.61545,3.32656 11.64274,2.93235 1.02731,-0.39422 2.25256,-3.12276 2.72279,-6.06344 0.90801,-5.67836 1.31935,-5.95638 11.06016,-7.47572 5.37626,-0.83858 5.77963,-0.70724 4.81976,1.56926 -0.57614,1.36644 -1.11642,3.68443 -1.20062,5.1511 -0.18127,3.15733 3.28352,3.31012 15.8469,0.69874 22.85742,-4.75104 55.20847,4.86343 71.33889,21.20131 13.97493,14.15471 19.99445,31.23529 19.99445,56.73501 0,16.76501 -1.31148,25.64857 -6.20513,42.03161 -10.13178,33.91925 -38.26881,75.90879 -57.10002,85.21164 -5.96416,2.94636 -7.98821,3.19813 -24.50569,3.04828 -12.72662,-0.11547 -20.08366,-0.81731 -25.09687,-2.39416 -6.50021,-2.04457 -7.67667,-2.05709 -14.0923,-0.15007 -7.96601,2.3679 -30.33312,3.59248 -40.46457,2.21544 z m 37.55592,-17.80144 c 9.35945,-4.2849 10.45526,-4.28609 19.77043,-0.0215 5.70051,2.60977 10.53903,3.62184 20.0196,4.18745 11.22727,0.66983 13.16253,0.43004 18.97709,-2.35132 8.41643,-4.02595 23.75939,-19.3521 31.76111,-31.72632 8.44621,-13.0616 17.06366,-31.54156 21.55206,-46.21804 3.37269,-11.02824 3.67522,-13.83555 3.73594,-34.66667 0.0599,-20.55042 -0.21457,-23.35134 -2.93989,-30 -9.60414,-23.43011 -31.47136,-36.57059 -60.96768,-36.63676 -14.98276,-0.0336 -21.96866,1.94961 -33.47135,9.5022 -3.74256,2.45734 -7.58047,4.46789 -8.52866,4.46789 -0.94818,0 -4.91853,-2.12043 -8.82298,-4.71205 -11.41422,-7.57632 -16.81195,-9.09444 -32.51035,-9.14358 -30.00345,-0.0939 -52.22051,13.00378 -61.60631,36.31891 -2.75385,6.8408 -3.02791,9.62969 -2.96793,30.20339 0.0607,20.83112 0.36325,23.63843 3.73594,34.66667 4.4884,14.67648 13.10585,33.15644 21.55206,46.21804 7.70569,11.91644 23.14772,27.52341 31.28624,31.62044 5.34696,2.69172 7.40733,2.95156 18.93023,2.38735 10.17245,-0.49808 14.54352,-1.37171 20.49445,-4.09614 z m 26.15779,-215.67436 c -2.24455,-3.8877 -3.66748,-7.38057 -3.16205,-7.76194 0.50541,-0.38137 4.43633,-5.04422 8.73536,-10.36188 7.39658,-9.14917 22.75781,-22.307359 24.64084,-21.106964 0.47853,0.305052 2.02522,2.724167 3.43709,5.375809 l 2.56705,4.821175 -3.23372,2.14328 c -6.03322,3.99878 -21.21764,20.5015 -25.06976,27.24631 l -3.83381,6.71276 z"
       id="path14"
       inkscape:connector-curvature="0" />
  </g>
</svg>
