<?xml version="1.0" encoding="UTF-8" standalone="no"?>
<!-- Created with Inkscape (http://www.inkscape.org/) -->

<svg
   xmlns:dc="http://purl.org/dc/elements/1.1/"
   xmlns:cc="http://creativecommons.org/ns#"
   xmlns:rdf="http://www.w3.org/1999/02/22-rdf-syntax-ns#"
   xmlns:svg="http://www.w3.org/2000/svg"
   xmlns="http://www.w3.org/2000/svg"
   xmlns:sodipodi="http://sodipodi.sourceforge.net/DTD/sodipodi-0.dtd"
   xmlns:inkscape="http://www.inkscape.org/namespaces/inkscape"
   width="212.14157mm"
   height="209.1675mm"
   viewBox="0 0 212.14157 209.1675"
   version="1.1"
   id="svg8"
   sodipodi:docname="sol.svg"
   inkscape:version="0.92.4 (5da689c313, 2019-01-14)">
  <defs
     id="defs2" />
  <sodipodi:namedview
     id="base"
     pagecolor="#ffffff"
     bordercolor="#666666"
     borderopacity="1.0"
     inkscape:pageopacity="0.0"
     inkscape:pageshadow="2"
     inkscape:zoom="0.7"
     inkscape:cx="302.74416"
     inkscape:cy="371.01667"
     inkscape:document-units="mm"
     inkscape:current-layer="svg8"
     showgrid="false"
     inkscape:window-width="1366"
     inkscape:window-height="745"
     inkscape:window-x="-8"
     inkscape:window-y="-8"
     inkscape:window-maximized="1"
     fit-margin-top="0"
     fit-margin-left="0"
     fit-margin-right="0"
     fit-margin-bottom="0" />
  <metadata
     id="metadata5">
    <rdf:RDF>
      <cc:Work
         rdf:about="">
        <dc:format>image/svg+xml</dc:format>
        <dc:type
           rdf:resource="http://purl.org/dc/dcmitype/StillImage" />
        <dc:title></dc:title>
      </cc:Work>
    </rdf:RDF>
  </metadata>
  <path
     id="path54"
     style="display:inline;fill:#f6ac1f;fill-opacity:1;stroke:#c00303;stroke-width:1.63872612;stroke-miterlimit:4;stroke-dasharray:none;stroke-opacity:1"
     d="m 126.24488,0.8203526 c -0.97867,-0.03585 -4.48395,1.789001 -9.26311,4.864223 -2.26192,1.455463 -3.62478,2.464119 -5.91006,4.3734804 -1.52097,1.270764 -6.63928,6.448587 -8.00006,8.093205 -4.186966,5.060336 -9.902318,15.111666 -11.094378,19.511083 -0.170394,0.628853 -0.388062,1.425005 -0.597442,2.191608 a 65.977245,65.977245 0 0 1 14.0075,-1.586968 65.977245,65.977245 0 0 1 4.14652,0.207475 c 0.0703,-0.800449 0.19291,-1.713758 0.33747,-2.401625 0.21718,-1.033365 0.4846,-2.594251 0.59448,-3.468637 0.50583,-4.025264 2.56732,-10.254967 5.21312,-15.753675 2.5805,-5.363058 6.02727,-10.4845114 9.61328,-14.2852644 0.67564,-0.716124 1.22831,-1.404715 1.22831,-1.529808 0,-0.138135 -0.0944,-0.208459 -0.27563,-0.215097 z m -54.580221,4.572911 c -0.303181,0.03349 -1.068423,1.154235 -2.441428,3.427989 -4.972601,8.2348514 -7.682144,15.8832824 -9.060287,25.5752704 -0.39133,2.752074 -0.45511,4.714098 -0.324762,9.993503 0.151237,6.125476 0.493866,9.072866 1.3109,11.006318 A 65.977245,65.977245 0 0 1 75.633776,45.367273 c -0.373764,-0.843937 -0.80641,-1.925242 -1.317252,-3.29673 -0.222057,-0.59617 -0.596647,-1.571726 -0.832439,-2.167898 -0.235797,-0.596171 -0.876229,-2.839946 -1.42353,-4.986165 -2.346964,-9.203533 -2.534678,-18.094149 -0.572461,-27.1177814 0.351887,-1.618218 0.444078,-2.434985 0.176565,-2.405435 z M 170.40903,24.236619 c -4.17206,0.01262 -10.97769,0.442911 -13.10436,0.977672 -0.31795,0.07996 -2.00862,0.484507 -3.7574,0.898913 -1.74876,0.414408 -3.30321,0.873925 -3.45425,1.02086 -0.15102,0.146938 -0.49766,0.267177 -0.7702,0.267177 -0.8117,0 -5.68356,1.939764 -8.78294,3.497007 -5.77135,2.899741 -11.20093,6.707592 -14.43092,10.12095 -0.17236,0.182137 -0.30192,0.320287 -0.44881,0.477191 a 65.977245,65.977245 0 0 1 16.08816,7.747273 c 0.4341,-0.732443 0.98772,-1.531671 1.45572,-2.043413 0.29024,-0.317377 1.15719,-1.357562 1.92613,-2.311437 6.53979,-8.112805 15.88415,-15.012906 25.1819,-18.594384 2.98996,-1.15173 3.64934,-1.49129 3.46695,-1.7864 -0.12138,-0.196405 -1.47359,-0.277143 -3.36998,-0.271409 z M 26.211625,36.072834 c -0.511947,0 -0.635187,2.175953 -0.4882,8.608502 0.114185,4.997099 0.290807,7.257442 0.738864,9.457034 1.74333,8.558334 3.936147,14.385784 7.969989,21.181454 1.88174,3.17011 5.870968,8.42937 7.60458,10.67945 a 65.977245,65.977245 0 0 1 7.718479,-17.0866 c -0.180065,-0.14545 -0.39122,-0.30414 -0.630891,-0.46363 -0.595085,-0.39604 -1.146728,-0.78923 -1.226217,-0.87395 -0.07949,-0.0847 -0.998449,-0.82545 -2.04172,-1.64625 C 42.079281,62.957064 36.211977,56.317327 33.375004,51.804068 31.003957,48.032039 28.084141,41.634667 26.944985,37.716116 26.682242,36.812313 26.35212,36.072834 26.211625,36.072834 Z M 168.97618,57.544765 c -4.81493,-0.01394 -9.28349,0.494802 -13.38084,1.524304 l -1.78851,0.449243 a 65.977245,65.977245 0 0 1 10.57442,15.233722 c 2.36048,-1.40167 9.10209,-3.88159 14.23869,-5.10769 4.26823,-1.01882 6.62967,-1.28907 12.35957,-1.41548 5.73203,-0.12647 10.23899,0.28388 13.6514,1.24357 2.52159,0.70916 2.00562,0.0326 -1.80037,-2.36097 -1.44831,-0.91085 -1.62804,-1.0137 -4.4425,-2.54728 -4.09193,-2.22969 -12.84259,-5.260545 -16.80291,-5.819879 -0.79489,-0.112268 -1.71424,-0.304436 -2.04298,-0.426804 -0.32875,-0.122365 -2.86518,-0.385496 -5.63654,-0.584738 -1.68098,-0.120852 -3.32445,-0.183355 -4.92943,-0.187998 z M 0.92724324,84.232364 l -0.0935746,0.95987 c -0.051324,0.52801 0.046228,1.0997 0.21678976,1.27027 0.1705593,0.17054 0.3103653,0.48344 0.3103653,0.69524 0,0.2118 0.3918744,1.40148 0.8709699,2.64382 0.9344412,2.42309 2.9930024,5.67038 5.8550178,9.23517 2.0570006,2.562096 8.3682776,9.010306 8.8189416,9.010306 0.167513,0 0.347983,0.10527 0.400977,0.23416 0.05299,0.12888 0.975166,0.90393 2.049341,1.72247 1.709193,1.30242 3.005552,2.14489 6.956751,4.52082 1.834959,1.10341 7.023808,3.58089 8.433632,4.0267 0.794896,0.25137 2.852008,0.88491 4.57164,1.40787 l 2.213204,0.67281 a 65.977245,65.977245 0 0 1 -2.121322,-16.38753 65.977245,65.977245 0 0 1 0.143116,-2.85934 c -1.502361,-0.0317 -4.148561,-0.15499 -4.435725,-0.30868 -0.331373,-0.17734 -1.587853,-0.44492 -2.792438,-0.59447 -1.204586,-0.14955 -3.651881,-0.654186 -5.438377,-1.121206 -3.024303,-0.79062 -3.813462,-1.04372 -6.881805,-2.20897 -2.583815,-0.98125 -9.399868,-4.54211 -10.3233446,-5.39307 -0.543482,-0.50081 -2.03012,-1.72111 -3.3035036,-2.712 -1.2733856,-0.99087 -3.0208376,-2.47925 -3.8831632,-3.30773 z M 169.39918,88.552484 a 65.977245,65.977245 0 0 1 1.96507,15.691856 65.977245,65.977245 0 0 1 -0.1249,2.49604 c 9.24825,0.93907 18.58211,3.90575 25.93899,8.25115 1.33913,0.79096 2.51802,1.43792 2.61968,1.43792 0.57297,0 6.23562,4.19998 9.43248,6.99612 1.3597,1.18927 1.96479,1.56159 2.07432,1.27619 0.16009,-0.41719 -1.96077,-4.80455 -3.78917,-7.83873 -2.52012,-4.18208 -5.54423,-7.95262 -9.91051,-12.35702 -1.85182,-1.86799 -3.50395,-3.39623 -3.67145,-3.39623 -0.16752,0 -0.34798,-0.1057 -0.40098,-0.23459 -0.0531,-0.12887 -0.97516,-0.903926 -2.04934,-1.722446 -1.7092,-1.30242 -3.00556,-2.1449 -6.95676,-4.52083 -1.83495,-1.10339 -7.02337,-3.58046 -8.4332,-4.02628 -0.7949,-0.25136 -2.85243,-0.8849 -4.57206,-1.40786 z m -0.9167,34.935336 a 65.977245,65.977245 0 0 1 -7.70663,16.48407 c 0.18455,0.18756 0.5304,0.46346 0.93914,0.73547 0.59508,0.39604 1.14674,0.78923 1.22622,0.87394 0.0796,0.0847 0.99802,0.82547 2.0413,1.64625 3.77735,2.9718 9.64495,9.61195 12.48193,14.12521 2.37105,3.77203 5.29087,10.1694 6.43002,14.08795 0.26274,0.9038 0.59286,1.64328 0.73336,1.64328 0.51195,0 0.63519,-2.17594 0.48819,-8.6085 -0.11417,-4.99709 -0.2908,-7.25786 -0.73886,-9.45745 -1.74333,-8.55834 -3.93572,-14.38579 -7.96957,-21.18147 -2.42764,-4.08976 -4.45424,-6.77396 -7.40726,-9.81059 -0.19069,-0.19609 -0.35603,-0.36833 -0.51784,-0.53816 z m -121.829947,10.7963 c -2.159238,1.37552 -9.145393,3.96578 -14.433035,5.22793 -4.268229,1.01882 -6.62968,1.2895 -12.35956,1.41592 -5.73203,0.12647 -10.2390066,-0.28431 -13.651407,-1.244 -2.521599,-0.70916 -2.005609,-0.0326 1.8003724,2.36098 1.448313,0.91084 1.628048,1.01412 4.4424966,2.54769 4.091934,2.2297 12.842596,5.26056 16.802904,5.81988 0.794897,0.11227 1.714244,0.30402 2.04299,0.42638 0.328749,0.12237 2.865189,0.3855 5.636536,0.58474 6.723912,0.4834 12.847143,0.0368 18.310269,-1.33588 l 2.216592,-0.5568 A 65.977245,65.977245 0 0 1 46.652533,134.28412 Z m 102.802827,18.95683 a 65.977245,65.977245 0 0 1 -14.51688,9.97063 c 0.43358,0.90168 0.94625,2.15162 1.55184,3.8023 0.20412,0.55643 0.57871,1.53198 0.83243,2.1679 0.25372,0.63591 0.90883,2.91193 1.45613,5.05814 2.34698,9.20353 2.53468,18.09415 0.57247,27.11778 -0.7507,3.45218 -0.31962,3.25789 2.26486,-1.02214 4.9726,-8.23484 7.68215,-15.88369 9.06029,-25.57568 0.39133,-2.75208 0.4551,-4.71367 0.32476,-9.99308 -0.16297,-6.60029 -0.54704,-9.51315 -1.50864,-11.44074 -0.0127,-0.0256 -0.0249,-0.057 -0.0373,-0.0851 z m -80.100444,6.20519 c -0.451998,0.83638 -1.148378,1.88593 -1.719498,2.51044 -0.290247,0.31738 -1.156777,1.35713 -1.925705,2.31101 -6.539803,8.1128 -15.884578,15.01291 -25.182338,18.59439 -2.989968,1.15174 -3.64933,1.49171 -3.466944,1.78682 0.388436,0.62851 13.380996,0.0712 16.474333,-0.70668 0.31796,-0.08 2.009059,-0.4845 3.757831,-0.89892 1.748771,-0.4144 3.302788,-0.8735 3.453817,-1.02044 0.15103,-0.14693 0.497672,-0.26718 0.770198,-0.26718 0.811708,0 5.683999,-1.94018 8.783374,-3.49743 5.771352,-2.89974 11.200506,-6.70759 14.430496,-10.12094 0.353076,-0.37313 0.643626,-0.68683 0.901879,-0.9565 a 65.977245,65.977245 0 0 1 -16.277443,-7.73457 z m 50.304124,9.12887 a 65.977245,65.977245 0 0 1 -14.27171,1.64625 65.977245,65.977245 0 0 1 -4.03178,-0.20154 c -0.0433,0.90125 -0.20108,2.17756 -0.38743,3.06427 -0.21719,1.03337 -0.48461,2.59426 -0.59448,3.46865 -0.505826,4.02525 -2.567316,10.25453 -5.213116,15.75324 -2.580522,5.36306 -6.026847,10.48494 -9.612847,14.28569 -0.675663,0.71614 -1.228759,1.40429 -1.228759,1.52937 0,0.43651 0.912004,0.22137 2.589622,-0.61097 4.423273,-2.19463 9.007712,-5.19327 12.859194,-8.41119 1.520946,-1.27077 6.639276,-6.44902 8.000046,-8.09364 4.15422,-5.02074 9.8988,-15.10339 11.07533,-19.43868 0.22324,-0.82262 0.56506,-2.0745 0.81593,-2.99145 z"
     inkscape:connector-curvature="0"
     inkscape:label="sol" />
</svg>
